<svg id="visual" viewBox="0 0 1920 1080" width="1920" height="1080" xmlns="http://www.w3.org/2000/svg" xmlns:xlink="http://www.w3.org/1999/xlink" version="1.1"><rect x="0" y="0" width="1920" height="1080" fill="#1b1b1b"></rect><defs><linearGradient id="grad1_0" x1="43.8%" y1="0%" x2="100%" y2="100%"><stop offset="14.444444444444446%" stop-color="#93329e" stop-opacity="1"></stop><stop offset="85.55555555555554%" stop-color="#93329e" stop-opacity="1"></stop></linearGradient></defs><defs><linearGradient id="grad1_1" x1="43.8%" y1="0%" x2="100%" y2="100%"><stop offset="14.444444444444446%" stop-color="#93329e" stop-opacity="1"></stop><stop offset="85.55555555555554%" stop-color="#692e6f" stop-opacity="1"></stop></linearGradient></defs><defs><linearGradient id="grad1_2" x1="43.8%" y1="0%" x2="100%" y2="100%"><stop offset="14.444444444444446%" stop-color="#412643" stop-opacity="1"></stop><stop offset="85.55555555555554%" stop-color="#692e6f" stop-opacity="1"></stop></linearGradient></defs><defs><linearGradient id="grad1_3" x1="43.8%" y1="0%" x2="100%" y2="100%"><stop offset="14.444444444444446%" stop-color="#412643" stop-opacity="1"></stop><stop offset="85.55555555555554%" stop-color="#1b1b1b" stop-opacity="1"></stop></linearGradient></defs><defs><linearGradient id="grad2_0" x1="0%" y1="0%" x2="56.3%" y2="100%"><stop offset="14.444444444444446%" stop-color="#93329e" stop-opacity="1"></stop><stop offset="85.55555555555554%" stop-color="#93329e" stop-opacity="1"></stop></linearGradient></defs><defs><linearGradient id="grad2_1" x1="0%" y1="0%" x2="56.3%" y2="100%"><stop offset="14.444444444444446%" stop-color="#692e6f" stop-opacity="1"></stop><stop offset="85.55555555555554%" stop-color="#93329e" stop-opacity="1"></stop></linearGradient></defs><defs><linearGradient id="grad2_2" x1="0%" y1="0%" x2="56.3%" y2="100%"><stop offset="14.444444444444446%" stop-color="#692e6f" stop-opacity="1"></stop><stop offset="85.55555555555554%" stop-color="#412643" stop-opacity="1"></stop></linearGradient></defs><defs><linearGradient id="grad2_3" x1="0%" y1="0%" x2="56.3%" y2="100%"><stop offset="14.444444444444446%" stop-color="#1b1b1b" stop-opacity="1"></stop><stop offset="85.55555555555554%" stop-color="#412643" stop-opacity="1"></stop></linearGradient></defs><g transform="translate(1920, 0)"><path d="M0 648C-88.9 643.5 -177.8 639 -248 598.7C-318.2 558.3 -369.6 482.1 -415.1 415.1C-460.5 348.1 -499.9 290.4 -537.7 222.7C-575.5 155.1 -611.8 77.5 -648 0L0 0Z" fill="#2e212e"></path><path d="M0 486C-66.7 482.6 -133.3 479.3 -186 449C-238.6 418.7 -277.2 361.5 -311.3 311.3C-345.4 261.1 -374.9 217.8 -403.3 167C-431.6 116.3 -458.8 58.2 -486 0L0 0Z" fill="#552a58"></path><path d="M0 324C-44.4 321.8 -88.9 319.5 -124 299.3C-159.1 279.2 -184.8 241 -207.5 207.5C-230.3 174 -249.9 145.2 -268.8 111.4C-287.8 77.5 -305.9 38.8 -324 0L0 0Z" fill="#7e3086"></path><path d="M0 162C-22.2 160.9 -44.4 159.8 -62 149.7C-79.5 139.6 -92.4 120.5 -103.8 103.8C-115.1 87 -125 72.6 -134.4 55.7C-143.9 38.8 -152.9 19.4 -162 0L0 0Z" fill="#93329e"></path></g><g transform="translate(0, 1080)"><path d="M0 -648C74 -608.5 148 -569 223.1 -538.6C298.2 -508.2 374.3 -486.9 441.2 -441.2C508.1 -395.6 565.8 -325.6 598.7 -248C631.6 -170.4 639.8 -85.2 648 0L0 0Z" fill="#2e212e"></path><path d="M0 -486C55.5 -456.4 111 -426.8 167.3 -404C223.6 -381.2 280.8 -365.2 330.9 -330.9C381.1 -296.7 424.3 -244.2 449 -186C473.7 -127.8 479.8 -63.9 486 0L0 0Z" fill="#552a58"></path><path d="M0 -324C37 -304.3 74 -284.5 111.6 -269.3C149.1 -254.1 187.2 -243.4 220.6 -220.6C254.1 -197.8 282.9 -162.8 299.3 -124C315.8 -85.2 319.9 -42.6 324 0L0 0Z" fill="#7e3086"></path><path d="M0 -162C18.5 -152.1 37 -142.3 55.8 -134.7C74.5 -127.1 93.6 -121.7 110.3 -110.3C127 -98.9 141.4 -81.4 149.7 -62C157.9 -42.6 159.9 -21.3 162 0L0 0Z" fill="#93329e" preserveAspectRatio="none"></path></g></svg>