<svg id="visual" viewBox="0 0 1920 1080" width="1920" height="1080" xmlns="http://www.w3.org/2000/svg" xmlns:xlink="http://www.w3.org/1999/xlink" version="1.1"><path d="M0 293L29.2 312.7C58.3 332.3 116.7 371.7 174.8 384.2C233 396.7 291 382.3 349.2 371.7C407.3 361 465.7 354 523.8 343.2C582 332.3 640 317.7 698.2 312.2C756.3 306.7 814.7 310.3 872.8 323C931 335.7 989 357.3 1047.2 357.3C1105.3 357.3 1163.7 335.7 1221.8 312.3C1280 289 1338 264 1396.2 249.7C1454.3 235.3 1512.7 231.7 1570.8 220.8C1629 210 1687 192 1745.2 219C1803.3 246 1861.7 318 1890.8 354L1920 390L1920 0L1890.8 0C1861.7 0 1803.3 0 1745.2 0C1687 0 1629 0 1570.8 0C1512.7 0 1454.3 0 1396.2 0C1338 0 1280 0 1221.8 0C1163.7 0 1105.3 0 1047.2 0C989 0 931 0 872.8 0C814.7 0 756.3 0 698.2 0C640 0 582 0 523.8 0C465.7 0 407.3 0 349.2 0C291 0 233 0 174.8 0C116.7 0 58.3 0 29.2 0L0 0Z" fill="#3e3e3e"></path><path d="M0 681L29.2 661.3C58.3 641.7 116.7 602.3 174.8 595.2C233 588 291 613 349.2 634.5C407.3 656 465.7 674 523.8 674C582 674 640 656 698.2 639.8C756.3 623.7 814.7 609.3 872.8 600.3C931 591.3 989 587.7 1047.2 591.3C1105.3 595 1163.7 606 1221.8 607.8C1280 609.7 1338 602.3 1396.2 611.3C1454.3 620.3 1512.7 645.7 1570.8 654.7C1629 663.7 1687 656.3 1745.2 643.7C1803.3 631 1861.7 613 1890.8 604L1920 595L1920 388L1890.8 352C1861.7 316 1803.3 244 1745.2 217C1687 190 1629 208 1570.8 218.8C1512.7 229.7 1454.3 233.3 1396.2 247.7C1338 262 1280 287 1221.8 310.3C1163.7 333.7 1105.3 355.3 1047.2 355.3C989 355.3 931 333.7 872.8 321C814.7 308.3 756.3 304.7 698.2 310.2C640 315.7 582 330.3 523.8 341.2C465.7 352 407.3 359 349.2 369.7C291 380.3 233 394.7 174.8 382.2C116.7 369.7 58.3 330.3 29.2 310.7L0 291Z" fill="#2c2c2c"></path><path d="M0 800L29.2 787.5C58.3 775 116.7 750 174.8 759C233 768 291 811 349.2 839.7C407.3 868.3 465.7 882.7 523.8 873.7C582 864.7 640 832.3 698.2 807.2C756.3 782 814.7 764 872.8 760.5C931 757 989 768 1047.2 764.5C1105.3 761 1163.7 743 1221.8 743C1280 743 1338 761 1396.2 775.3C1454.3 789.7 1512.7 800.3 1570.8 796.7C1629 793 1687 775 1745.2 753.3C1803.3 731.7 1861.7 706.3 1890.8 693.7L1920 681L1920 593L1890.8 602C1861.7 611 1803.3 629 1745.2 641.7C1687 654.3 1629 661.7 1570.8 652.7C1512.7 643.7 1454.3 618.3 1396.2 609.3C1338 600.3 1280 607.7 1221.8 605.8C1163.7 604 1105.3 593 1047.2 589.3C989 585.7 931 589.3 872.8 598.3C814.7 607.3 756.3 621.7 698.2 637.8C640 654 582 672 523.8 672C465.7 672 407.3 654 349.2 632.5C291 611 233 586 174.8 593.2C116.7 600.3 58.3 639.7 29.2 659.3L0 679Z" fill="#1b1b1b"></path><path d="M0 919L29.2 910C58.3 901 116.7 883 174.8 895.7C233 908.3 291 951.7 349.2 969.7C407.3 987.7 465.7 980.3 523.8 967.7C582 955 640 937 698.2 929.8C756.3 922.7 814.7 926.3 872.8 933.5C931 940.7 989 951.3 1047.2 947.7C1105.3 944 1163.7 926 1221.8 922.5C1280 919 1338 930 1396.2 931.8C1454.3 933.7 1512.7 926.3 1570.8 924.5C1629 922.7 1687 926.3 1745.2 901.2C1803.3 876 1861.7 822 1890.8 795L1920 768L1920 679L1890.8 691.7C1861.7 704.3 1803.3 729.7 1745.2 751.3C1687 773 1629 791 1570.8 794.7C1512.7 798.3 1454.3 787.7 1396.2 773.3C1338 759 1280 741 1221.8 741C1163.7 741 1105.3 759 1047.2 762.5C989 766 931 755 872.8 758.5C814.7 762 756.3 780 698.2 805.2C640 830.3 582 862.7 523.8 871.7C465.7 880.7 407.3 866.3 349.2 837.7C291 809 233 766 174.8 757C116.7 748 58.3 773 29.2 785.5L0 798Z" fill="#191919"></path><path d="M0 1081L29.2 1081C58.3 1081 116.7 1081 174.8 1081C233 1081 291 1081 349.2 1081C407.3 1081 465.7 1081 523.8 1081C582 1081 640 1081 698.2 1081C756.3 1081 814.7 1081 872.8 1081C931 1081 989 1081 1047.2 1081C1105.3 1081 1163.7 1081 1221.8 1081C1280 1081 1338 1081 1396.2 1081C1454.3 1081 1512.7 1081 1570.8 1081C1629 1081 1687 1081 1745.2 1081C1803.3 1081 1861.7 1081 1890.8 1081L1920 1081L1920 766L1890.8 793C1861.7 820 1803.3 874 1745.2 899.2C1687 924.3 1629 920.7 1570.8 922.5C1512.7 924.3 1454.3 931.7 1396.2 929.8C1338 928 1280 917 1221.8 920.5C1163.7 924 1105.3 942 1047.2 945.7C989 949.3 931 938.7 872.8 931.5C814.7 924.3 756.3 920.7 698.2 927.8C640 935 582 953 523.8 965.7C465.7 978.3 407.3 985.7 349.2 967.7C291 949.7 233 906.3 174.8 893.7C116.7 881 58.3 899 29.2 908L0 917Z" fill="#161616"></path></svg>