<svg id="visual" viewBox="0 0 540 960" width="540" height="960" xmlns="http://www.w3.org/2000/svg" xmlns:xlink="http://www.w3.org/1999/xlink" version="1.1"><path d="M0 145L18 133.8C36 122.7 72 100.3 108 97.2C144 94 180 110 216 121.2C252 132.3 288 138.7 324 135.5C360 132.3 396 119.7 432 111.7C468 103.7 504 100.3 522 98.7L540 97L540 0L522 0C504 0 468 0 432 0C396 0 360 0 324 0C288 0 252 0 216 0C180 0 144 0 108 0C72 0 36 0 18 0L0 0Z" fill="#3e3e3e"></path><path d="M0 385L18 385C36 385 72 385 108 399.3C144 413.7 180 442.3 216 452C252 461.7 288 452.3 324 436.3C360 420.3 396 397.7 432 383.2C468 368.7 504 362.3 522 359.2L540 356L540 95L522 96.7C504 98.3 468 101.7 432 109.7C396 117.7 360 130.3 324 133.5C288 136.7 252 130.3 216 119.2C180 108 144 92 108 95.2C72 98.3 36 120.7 18 131.8L0 143Z" fill="#2c2c2c"></path><path d="M0 606L18 604.3C36 602.7 72 599.3 108 599.3C144 599.3 180 602.7 216 605.8C252 609 288 612 324 612C360 612 396 609 432 596.3C468 583.7 504 561.3 522 550.2L540 539L540 354L522 357.2C504 360.3 468 366.7 432 381.2C396 395.7 360 418.3 324 434.3C288 450.3 252 459.7 216 450C180 440.3 144 411.7 108 397.3C72 383 36 383 18 383L0 383Z" fill="#1b1b1b"></path><path d="M0 855L18 855C36 855 72 855 108 850.3C144 845.7 180 836.3 216 828.3C252 820.3 288 813.7 324 818.3C360 823 396 839 432 840.7C468 842.3 504 829.7 522 823.3L540 817L540 537L522 548.2C504 559.3 468 581.7 432 594.3C396 607 360 610 324 610C288 610 252 607 216 603.8C180 600.7 144 597.3 108 597.3C72 597.3 36 600.7 18 602.3L0 604Z" fill="#191919"></path><path d="M0 961L18 961C36 961 72 961 108 961C144 961 180 961 216 961C252 961 288 961 324 961C360 961 396 961 432 961C468 961 504 961 522 961L540 961L540 815L522 821.3C504 827.7 468 840.3 432 838.7C396 837 360 821 324 816.3C288 811.7 252 818.3 216 826.3C180 834.3 144 843.7 108 848.3C72 853 36 853 18 853L0 853Z" fill="#161616"></path></svg>