<svg id="visual" viewBox="0 0 1920 1080" width="1920" height="1080" xmlns="http://www.w3.org/2000/svg" xmlns:xlink="http://www.w3.org/1999/xlink" version="1.1"><g stroke-width="1" stroke-linejoin="bevel"><path d="M888.3 568L1068.7 720L1041.7 579Z" fill="#6d2e73" stroke="#6d2e73"></path><path d="M888.3 568L850.3 732L1068.7 720Z" fill="#93329e" stroke="#93329e"></path><path d="M850.3 732L1027.7 922L1068.7 720Z" fill="#612c65" stroke="#612c65"></path><path d="M835.3 866L1027.7 922L850.3 732Z" fill="#7a3081" stroke="#7a3081"></path><path d="M1068.7 720L1240 563L1041.7 579Z" fill="#6d2e73" stroke="#6d2e73"></path><path d="M1041.7 579L885.3 333L888.3 568Z" fill="#261f26" stroke="#261f26"></path><path d="M1302 744L1240 563L1068.7 720Z" fill="#612c65" stroke="#612c65"></path><path d="M1103.7 323L885.3 333L1041.7 579Z" fill="#552a58" stroke="#552a58"></path><path d="M629 519L602 692L850.3 732Z" fill="#261f26" stroke="#261f26"></path><path d="M850.3 732L632 862L835.3 866Z" fill="#261f26" stroke="#261f26"></path><path d="M1257 884L1302 744L1068.7 720Z" fill="#86318f" stroke="#86318f"></path><path d="M629 519L850.3 732L888.3 568Z" fill="#552a58" stroke="#552a58"></path><path d="M885.3 333L629 519L888.3 568Z" fill="#93329e" stroke="#93329e"></path><path d="M1027.7 922L1257 884L1068.7 720Z" fill="#49284b" stroke="#49284b"></path><path d="M1240 563L1103.7 323L1041.7 579Z" fill="#6d2e73" stroke="#6d2e73"></path><path d="M602 692L632 862L850.3 732Z" fill="#1b1b1b" stroke="#1b1b1b"></path><path d="M863.3 1080L1028.7 1080L1027.7 922Z" fill="#3d253e" stroke="#3d253e"></path><path d="M863.3 1080L1027.7 922L835.3 866Z" fill="#6d2e73" stroke="#6d2e73"></path><path d="M1027.7 922L1241 1080L1257 884Z" fill="#93329e" stroke="#93329e"></path><path d="M663 1080L863.3 1080L835.3 866Z" fill="#49284b" stroke="#49284b"></path><path d="M1490.3 552L1292 354L1240 563Z" fill="#612c65" stroke="#612c65"></path><path d="M1240 563L1292 354L1103.7 323Z" fill="#322232" stroke="#322232"></path><path d="M819.3 191L601 333L885.3 333Z" fill="#1b1b1b" stroke="#1b1b1b"></path><path d="M885.3 333L601 333L629 519Z" fill="#6d2e73" stroke="#6d2e73"></path><path d="M400.7 568L457.7 734L602 692Z" fill="#1b1b1b" stroke="#1b1b1b"></path><path d="M1099.7 160L819.3 191L885.3 333Z" fill="#86318f" stroke="#86318f"></path><path d="M1099.7 160L885.3 333L1103.7 323Z" fill="#7a3081" stroke="#7a3081"></path><path d="M1028.7 1080L1241 1080L1027.7 922Z" fill="#3d253e" stroke="#3d253e"></path><path d="M1525.3 697L1490.3 552L1302 744Z" fill="#261f26" stroke="#261f26"></path><path d="M602 692L457.7 734L632 862Z" fill="#6d2e73" stroke="#6d2e73"></path><path d="M632 862L663 1080L835.3 866Z" fill="#7a3081" stroke="#7a3081"></path><path d="M400.7 568L602 692L629 519Z" fill="#49284b" stroke="#49284b"></path><path d="M430.7 1080L663 1080L632 862Z" fill="#3d253e" stroke="#3d253e"></path><path d="M1248 160L1099.7 160L1103.7 323Z" fill="#49284b" stroke="#49284b"></path><path d="M1525.3 697L1302 744L1529.3 888Z" fill="#49284b" stroke="#49284b"></path><path d="M1302 744L1490.3 552L1240 563Z" fill="#86318f" stroke="#86318f"></path><path d="M1292 354L1248 160L1103.7 323Z" fill="#86318f" stroke="#86318f"></path><path d="M391.7 379L400.7 568L629 519Z" fill="#612c65" stroke="#612c65"></path><path d="M1529.3 888L1302 744L1257 884Z" fill="#49284b" stroke="#49284b"></path><path d="M819.3 191L641 178L601 333Z" fill="#3d253e" stroke="#3d253e"></path><path d="M601 333L391.7 379L629 519Z" fill="#7a3081" stroke="#7a3081"></path><path d="M840.3 0L641 178L819.3 191Z" fill="#3d253e" stroke="#3d253e"></path><path d="M1493.3 168L1248 160L1292 354Z" fill="#93329e" stroke="#93329e"></path><path d="M1513.3 1080L1529.3 888L1257 884Z" fill="#86318f" stroke="#86318f"></path><path d="M1490.3 552L1498.3 348L1292 354Z" fill="#86318f" stroke="#86318f"></path><path d="M1699.7 397L1498.3 348L1490.3 552Z" fill="#7a3081" stroke="#7a3081"></path><path d="M192.3 734L388.7 937L457.7 734Z" fill="#86318f" stroke="#86318f"></path><path d="M457.7 734L388.7 937L632 862Z" fill="#49284b" stroke="#49284b"></path><path d="M449.7 150L391.7 379L601 333Z" fill="#7a3081" stroke="#7a3081"></path><path d="M400.7 568L192.3 734L457.7 734Z" fill="#1b1b1b" stroke="#1b1b1b"></path><path d="M388.7 937L430.7 1080L632 862Z" fill="#552a58" stroke="#552a58"></path><path d="M1099.7 160L840.3 0L819.3 191Z" fill="#6d2e73" stroke="#6d2e73"></path><path d="M641 178L449.7 150L601 333Z" fill="#322232" stroke="#322232"></path><path d="M1080.7 0L840.3 0L1099.7 160Z" fill="#93329e" stroke="#93329e"></path><path d="M1256 0L1099.7 160L1248 160Z" fill="#612c65" stroke="#612c65"></path><path d="M1256 0L1080.7 0L1099.7 160Z" fill="#86318f" stroke="#86318f"></path><path d="M1241 1080L1513.3 1080L1257 884Z" fill="#261f26" stroke="#261f26"></path><path d="M1529.3 888L1668.7 723L1525.3 697Z" fill="#6d2e73" stroke="#6d2e73"></path><path d="M1525.3 697L1718.7 546L1490.3 552Z" fill="#612c65" stroke="#612c65"></path><path d="M1735.7 863L1668.7 723L1529.3 888Z" fill="#612c65" stroke="#612c65"></path><path d="M623 0L449.7 150L641 178Z" fill="#552a58" stroke="#552a58"></path><path d="M1493.3 168L1256 0L1248 160Z" fill="#612c65" stroke="#612c65"></path><path d="M1679.7 151L1493.3 168L1498.3 348Z" fill="#3d253e" stroke="#3d253e"></path><path d="M1498.3 348L1493.3 168L1292 354Z" fill="#322232" stroke="#322232"></path><path d="M840.3 0L623 0L641 178Z" fill="#3d253e" stroke="#3d253e"></path><path d="M179.3 327L204.3 569L391.7 379Z" fill="#6d2e73" stroke="#6d2e73"></path><path d="M391.7 379L204.3 569L400.7 568Z" fill="#7a3081" stroke="#7a3081"></path><path d="M388.7 937L198.3 1080L430.7 1080Z" fill="#7a3081" stroke="#7a3081"></path><path d="M204.3 569L192.3 734L400.7 568Z" fill="#86318f" stroke="#86318f"></path><path d="M1668.7 723L1718.7 546L1525.3 697Z" fill="#49284b" stroke="#49284b"></path><path d="M1718.7 546L1699.7 397L1490.3 552Z" fill="#322232" stroke="#322232"></path><path d="M1668.7 723L1920 705L1718.7 546Z" fill="#86318f" stroke="#86318f"></path><path d="M1717.7 1080L1735.7 863L1529.3 888Z" fill="#612c65" stroke="#612c65"></path><path d="M192.3 734L191.3 913L388.7 937Z" fill="#322232" stroke="#322232"></path><path d="M623 0L439.7 0L449.7 150Z" fill="#7a3081" stroke="#7a3081"></path><path d="M251.3 182L179.3 327L391.7 379Z" fill="#261f26" stroke="#261f26"></path><path d="M251.3 182L391.7 379L449.7 150Z" fill="#1b1b1b" stroke="#1b1b1b"></path><path d="M204.3 569L0 733L192.3 734Z" fill="#3d253e" stroke="#3d253e"></path><path d="M192.3 734L0 876L191.3 913Z" fill="#322232" stroke="#322232"></path><path d="M439.7 0L251.3 182L449.7 150Z" fill="#322232" stroke="#322232"></path><path d="M1513.3 1080L1717.7 1080L1529.3 888Z" fill="#552a58" stroke="#552a58"></path><path d="M191.3 913L198.3 1080L388.7 937Z" fill="#86318f" stroke="#86318f"></path><path d="M1679.7 151L1507.3 0L1493.3 168Z" fill="#49284b" stroke="#49284b"></path><path d="M1493.3 168L1507.3 0L1256 0Z" fill="#322232" stroke="#322232"></path><path d="M1920 162L1679.7 151L1699.7 397Z" fill="#6d2e73" stroke="#6d2e73"></path><path d="M1699.7 397L1679.7 151L1498.3 348Z" fill="#7a3081" stroke="#7a3081"></path><path d="M0 555L0 733L204.3 569Z" fill="#612c65" stroke="#612c65"></path><path d="M191.3 913L0 1080L198.3 1080Z" fill="#49284b" stroke="#49284b"></path><path d="M1735.7 863L1920 705L1668.7 723Z" fill="#3d253e" stroke="#3d253e"></path><path d="M1718.7 546L1920 508L1699.7 397Z" fill="#261f26" stroke="#261f26"></path><path d="M1920 887L1920 705L1735.7 863Z" fill="#3d253e" stroke="#3d253e"></path><path d="M0 340L0 555L179.3 327Z" fill="#93329e" stroke="#93329e"></path><path d="M179.3 327L0 555L204.3 569Z" fill="#3d253e" stroke="#3d253e"></path><path d="M1920 705L1920 508L1718.7 546Z" fill="#86318f" stroke="#86318f"></path><path d="M0 733L0 876L192.3 734Z" fill="#1b1b1b" stroke="#1b1b1b"></path><path d="M1717.7 1080L1920 887L1735.7 863Z" fill="#49284b" stroke="#49284b"></path><path d="M1920 162L1693.7 0L1679.7 151Z" fill="#261f26" stroke="#261f26"></path><path d="M1679.7 151L1693.7 0L1507.3 0Z" fill="#552a58" stroke="#552a58"></path><path d="M1920 508L1920 376L1699.7 397Z" fill="#322232" stroke="#322232"></path><path d="M439.7 0L205.3 0L251.3 182Z" fill="#86318f" stroke="#86318f"></path><path d="M0 194L0 340L179.3 327Z" fill="#7a3081" stroke="#7a3081"></path><path d="M0 194L179.3 327L251.3 182Z" fill="#86318f" stroke="#86318f"></path><path d="M0 876L0 1080L191.3 913Z" fill="#7a3081" stroke="#7a3081"></path><path d="M1717.7 1080L1920 1080L1920 887Z" fill="#261f26" stroke="#261f26"></path><path d="M205.3 0L0 194L251.3 182Z" fill="#552a58" stroke="#552a58"></path><path d="M1920 376L1920 162L1699.7 397Z" fill="#7a3081" stroke="#7a3081"></path><path d="M205.3 0L0 0L0 194Z" fill="#93329e" stroke="#93329e"></path><path d="M1920 162L1920 0L1693.7 0Z" fill="#552a58" stroke="#552a58" preserveAspectRatio="none"></path></g></svg>