<svg id="visual" viewBox="0 0 900 600" width="900" height="600" xmlns="http://www.w3.org/2000/svg" xmlns:xlink="http://www.w3.org/1999/xlink" version="1.1" preserveAspectRatio="none"><path d="M0 163L13.7 174C27.3 185 54.7 207 82 214C109.3 221 136.7 213 163.8 207C191 201 218 197 245.2 191C272.3 185 299.7 177 327 174C354.3 171 381.7 173 409 180C436.3 187 463.7 199 491 199C518.3 199 545.7 187 573 174C600.3 161 627.7 147 654.8 139C682 131 709 129 736.2 123C763.3 117 790.7 107 818 122C845.3 137 872.7 177 886.3 197L900 217L900 0L886.3 0C872.7 0 845.3 0 818 0C790.7 0 763.3 0 736.2 0C709 0 682 0 654.8 0C627.7 0 600.3 0 573 0C545.7 0 518.3 0 491 0C463.7 0 436.3 0 409 0C381.7 0 354.3 0 327 0C299.7 0 272.3 0 245.2 0C218 0 191 0 163.8 0C136.7 0 109.3 0 82 0C54.7 0 27.3 0 13.7 0L0 0Z" fill="#3e3e3e"></path><path d="M0 379L13.7 368C27.3 357 54.7 335 82 331C109.3 327 136.7 341 163.8 353C191 365 218 375 245.2 375C272.3 375 299.7 365 327 356C354.3 347 381.7 339 409 334C436.3 329 463.7 327 491 329C518.3 331 545.7 337 573 338C600.3 339 627.7 335 654.8 340C682 345 709 359 736.2 364C763.3 369 790.7 365 818 358C845.3 351 872.7 341 886.3 336L900 331L900 215L886.3 195C872.7 175 845.3 135 818 120C790.7 105 763.3 115 736.2 121C709 127 682 129 654.8 137C627.7 145 600.3 159 573 172C545.7 185 518.3 197 491 197C463.7 197 436.3 185 409 178C381.7 171 354.3 169 327 172C299.7 175 272.3 183 245.2 189C218 195 191 199 163.8 205C136.7 211 109.3 219 82 212C54.7 205 27.3 183 13.7 172L0 161Z" fill="#2c2c2c"></path><path d="M0 445L13.7 438C27.3 431 54.7 417 82 422C109.3 427 136.7 451 163.8 467C191 483 218 491 245.2 486C272.3 481 299.7 463 327 449C354.3 435 381.7 425 409 423C436.3 421 463.7 427 491 425C518.3 423 545.7 413 573 413C600.3 413 627.7 423 654.8 431C682 439 709 445 736.2 443C763.3 441 790.7 431 818 419C845.3 407 872.7 393 886.3 386L900 379L900 329L886.3 334C872.7 339 845.3 349 818 356C790.7 363 763.3 367 736.2 362C709 357 682 343 654.8 338C627.7 333 600.3 337 573 336C545.7 335 518.3 329 491 327C463.7 325 436.3 327 409 332C381.7 337 354.3 345 327 354C299.7 363 272.3 373 245.2 373C218 373 191 363 163.8 351C136.7 339 109.3 325 82 329C54.7 333 27.3 355 13.7 366L0 377Z" fill="#1b1b1b"></path><path d="M0 511L13.7 506C27.3 501 54.7 491 82 498C109.3 505 136.7 529 163.8 539C191 549 218 545 245.2 538C272.3 531 299.7 521 327 517C354.3 513 381.7 515 409 519C436.3 523 463.7 529 491 527C518.3 525 545.7 515 573 513C600.3 511 627.7 517 654.8 518C682 519 709 515 736.2 514C763.3 513 790.7 515 818 501C845.3 487 872.7 457 886.3 442L900 427L900 377L886.3 384C872.7 391 845.3 405 818 417C790.7 429 763.3 439 736.2 441C709 443 682 437 654.8 429C627.7 421 600.3 411 573 411C545.7 411 518.3 421 491 423C463.7 425 436.3 419 409 421C381.7 423 354.3 433 327 447C299.7 461 272.3 479 245.2 484C218 489 191 481 163.8 465C136.7 449 109.3 425 82 420C54.7 415 27.3 429 13.7 436L0 443Z" fill="#191919"></path><path d="M0 601L13.7 601C27.3 601 54.7 601 82 601C109.3 601 136.7 601 163.8 601C191 601 218 601 245.2 601C272.3 601 299.7 601 327 601C354.3 601 381.7 601 409 601C436.3 601 463.7 601 491 601C518.3 601 545.7 601 573 601C600.3 601 627.7 601 654.8 601C682 601 709 601 736.2 601C763.3 601 790.7 601 818 601C845.3 601 872.7 601 886.3 601L900 601L900 425L886.3 440C872.7 455 845.3 485 818 499C790.7 513 763.3 511 736.2 512C709 513 682 517 654.8 516C627.7 515 600.3 509 573 511C545.7 513 518.3 523 491 525C463.7 527 436.3 521 409 517C381.7 513 354.3 511 327 515C299.7 519 272.3 529 245.2 536C218 543 191 547 163.8 537C136.7 527 109.3 503 82 496C54.7 489 27.3 499 13.7 504L0 509Z" fill="#161616" preserveAspectRatio="none"></path></svg>