<svg id="visual" viewBox="0 0 450 1000" width="450" height="1000" xmlns="http://www.w3.org/2000/svg" xmlns:xlink="http://www.w3.org/1999/xlink" version="1.1"><rect x="0" y="0" width="450" height="1000" fill="#1b1b1b"></rect><defs><linearGradient id="grad1_0" x1="0%" y1="0%" x2="100%" y2="100%"><stop offset="30%" stop-color="#93329e" stop-opacity="1"></stop><stop offset="70%" stop-color="#93329e" stop-opacity="1"></stop></linearGradient></defs><defs><linearGradient id="grad1_1" x1="0%" y1="0%" x2="100%" y2="100%"><stop offset="30%" stop-color="#93329e" stop-opacity="1"></stop><stop offset="70%" stop-color="#692e6f" stop-opacity="1"></stop></linearGradient></defs><defs><linearGradient id="grad1_2" x1="0%" y1="0%" x2="100%" y2="100%"><stop offset="30%" stop-color="#412643" stop-opacity="1"></stop><stop offset="70%" stop-color="#692e6f" stop-opacity="1"></stop></linearGradient></defs><defs><linearGradient id="grad1_3" x1="0%" y1="0%" x2="100%" y2="100%"><stop offset="30%" stop-color="#412643" stop-opacity="1"></stop><stop offset="70%" stop-color="#1b1b1b" stop-opacity="1"></stop></linearGradient></defs><defs><linearGradient id="grad2_0" x1="0%" y1="0%" x2="100%" y2="100%"><stop offset="30%" stop-color="#93329e" stop-opacity="1"></stop><stop offset="70%" stop-color="#93329e" stop-opacity="1"></stop></linearGradient></defs><defs><linearGradient id="grad2_1" x1="0%" y1="0%" x2="100%" y2="100%"><stop offset="30%" stop-color="#692e6f" stop-opacity="1"></stop><stop offset="70%" stop-color="#93329e" stop-opacity="1"></stop></linearGradient></defs><defs><linearGradient id="grad2_2" x1="0%" y1="0%" x2="100%" y2="100%"><stop offset="30%" stop-color="#692e6f" stop-opacity="1"></stop><stop offset="70%" stop-color="#412643" stop-opacity="1"></stop></linearGradient></defs><defs><linearGradient id="grad2_3" x1="0%" y1="0%" x2="100%" y2="100%"><stop offset="30%" stop-color="#1b1b1b" stop-opacity="1"></stop><stop offset="70%" stop-color="#412643" stop-opacity="1"></stop></linearGradient></defs><g transform="translate(450, 0)"><path d="M0 405C-44.5 379.8 -89 354.6 -140.4 339.1C-191.8 323.5 -250.1 317.7 -286.4 286.4C-322.6 255 -336.8 198.2 -352.9 146.2C-369 94.2 -387 47.1 -405 0L0 0Z" fill="#2e212e"></path><path d="M0 303.8C-33.4 284.8 -66.8 265.9 -105.3 254.3C-143.9 242.7 -187.6 238.3 -214.8 214.8C-242 191.3 -252.6 148.6 -264.7 109.6C-276.8 70.7 -290.3 35.3 -303.7 0L0 0Z" fill="#552a58"></path><path d="M0 202.5C-22.3 189.9 -44.5 177.3 -70.2 169.5C-95.9 161.8 -125.1 158.9 -143.2 143.2C-161.3 127.5 -168.4 99.1 -176.5 73.1C-184.5 47.1 -193.5 23.6 -202.5 0L0 0Z" fill="#7e3086"></path><path d="M0 101.3C-11.1 94.9 -22.3 88.6 -35.1 84.8C-48 80.9 -62.5 79.4 -71.6 71.6C-80.7 63.8 -84.2 49.5 -88.2 36.5C-92.3 23.6 -96.8 11.8 -101.2 0L0 0Z" fill="#93329e"></path></g><g transform="translate(0, 1000)"><path d="M0 -405C55 -401.1 109.9 -397.1 155 -374.2C200 -351.2 235.2 -309.3 270.1 -270.1C305 -230.9 339.7 -194.6 362.2 -150C384.6 -105.5 394.8 -52.7 405 0L0 0Z" fill="#2e212e"></path><path d="M0 -303.7C41.2 -300.8 82.4 -297.8 116.2 -280.6C150 -263.4 176.4 -232 202.6 -202.6C228.8 -173.2 254.8 -145.9 271.6 -112.5C288.5 -79.1 296.1 -39.5 303.8 0L0 0Z" fill="#552a58"></path><path d="M0 -202.5C27.5 -200.5 55 -198.6 77.5 -187.1C100 -175.6 117.6 -154.6 135.1 -135.1C152.5 -115.5 169.9 -97.3 181.1 -75C192.3 -52.7 197.4 -26.4 202.5 0L0 0Z" fill="#7e3086"></path><path d="M0 -101.2C13.7 -100.3 27.5 -99.3 38.7 -93.5C50 -87.8 58.8 -77.3 67.5 -67.5C76.3 -57.7 84.9 -48.6 90.5 -37.5C96.2 -26.4 98.7 -13.2 101.3 0L0 0Z" fill="#93329e"></path></g></svg>