<svg xmlns="http://www.w3.org/2000/svg" viewBox="0 0 1440 320" preserveAspectRatio="none"><path fill="#161616" fill-opacity="1" d="M0,160L26.7,149.3C53.3,139,107,117,160,112C213.3,107,267,117,320,154.7C373.3,192,427,256,480,240C533.3,224,587,128,640,96C693.3,64,747,96,800,117.3C853.3,139,907,149,960,170.7C1013.3,192,1067,224,1120,229.3C1173.3,235,1227,213,1280,218.7C1333.3,224,1387,256,1413,272L1440,288L1440,0L1413.3,0C1386.7,0,1333,0,1280,0C1226.7,0,1173,0,1120,0C1066.7,0,1013,0,960,0C906.7,0,853,0,800,0C746.7,0,693,0,640,0C586.7,0,533,0,480,0C426.7,0,373,0,320,0C266.7,0,213,0,160,0C106.7,0,53,0,27,0L0,0Z"></path></svg>